<?xml version="1.0" standalone="no"?>
<!DOCTYPE svg PUBLIC "-//W3C//DTD SVG 20010904//EN"
 "http://www.w3.org/TR/2001/REC-SVG-20010904/DTD/svg10.dtd">
<svg version="1.0" xmlns="http://www.w3.org/2000/svg"
 width="700.000000pt" height="700.000000pt" viewBox="0 0 700.000000 700.000000"
 preserveAspectRatio="xMidYMid meet">
<metadata>
Created by potrace 1.14, written by Peter Selinger 2001-2017
</metadata>
<g transform="translate(0.000000,700.000000) scale(0.100000,-0.100000)"
fill="#000000" stroke="none">
<path d="M3270 6884 c-730 -66 -1342 -306 -1885 -740 -141 -113 -396 -368
-509 -509 -398 -497 -637 -1063 -723 -1710 -24 -182 -24 -628 0 -810 86 -646
326 -1213 723 -1710 113 -141 368 -396 509 -509 806 -645 1836 -885 2849 -664
490 106 976 340 1381 664 141 113 396 368 509 509 340 425 575 929 680 1455
49 248 60 366 60 660 0 294 -11 412 -60 660 -105 527 -340 1030 -680 1455
-113 142 -368 397 -509 509 -503 400 -1065 638 -1707 722 -117 15 -538 27
-638 18z m450 -134 c532 -40 1020 -195 1465 -465 581 -353 1054 -908 1310
-1534 165 -404 239 -784 239 -1231 0 -448 -74 -827 -240 -1234 -257 -630 -739
-1189 -1329 -1543 -1027 -617 -2323 -613 -3350 12 -437 266 -830 662 -1093
1101 -557 933 -610 2086 -141 3063 168 350 371 633 651 907 146 143 226 213
368 316 607 442 1378 663 2120 608z"/>
<path d="M3215 6659 c-1021 -95 -1922 -672 -2445 -1566 -143 -244 -284 -601
-344 -873 -58 -266 -70 -382 -70 -700 0 -256 3 -314 23 -440 77 -498 239 -919
507 -1317 122 -181 221 -301 389 -468 359 -360 761 -609 1235 -765 1019 -337
2123 -137 2965 535 134 106 371 344 480 480 454 569 695 1253 695 1975 0 724
-240 1404 -699 1980 -98 124 -349 374 -476 475 -494 394 -1075 628 -1705 685
-132 11 -423 11 -555 -1z m-445 -503 c256 -104 506 -481 577 -870 24 -130 24
-467 0 -596 -59 -324 -207 -517 -430 -562 -239 -47 -531 190 -722 587 -63 130
-79 182 -106 335 -26 145 -36 441 -20 561 40 305 167 487 390 561 82 27 223
20 311 -16z m1785 19 c183 -48 319 -200 375 -420 47 -185 51 -425 10 -684 -24
-155 -43 -218 -109 -356 -186 -391 -478 -631 -714 -587 -248 46 -399 262 -448
637 -16 120 -6 454 16 555 38 175 118 366 216 515 62 95 204 240 274 281 121
70 255 91 380 59z m-2930 -1290 c122 -32 255 -114 366 -227 98 -99 156 -186
244 -363 98 -195 130 -303 144 -486 27 -334 -69 -579 -265 -676 -67 -32 -87
-37 -166 -41 -145 -7 -257 27 -408 125 -96 62 -251 213 -321 313 -93 131 -160
289 -201 478 -29 131 -32 404 -5 502 68 251 233 388 467 389 47 1 113 -6 145
-14z m4056 -1 c117 -34 229 -126 283 -232 54 -107 71 -192 71 -367 -1 -177
-15 -273 -67 -435 -94 -293 -316 -558 -578 -690 -111 -56 -185 -73 -301 -68
-87 3 -104 7 -172 41 -158 78 -241 226 -268 477 -12 117 2 283 37 420 26 103
131 331 208 449 123 190 291 330 470 393 97 33 227 38 317 12z m-1938 -1013
c29 -14 62 -41 80 -66 18 -24 266 -261 552 -527 286 -267 553 -520 593 -563
247 -264 387 -617 353 -885 -24 -191 -108 -350 -265 -506 -180 -178 -366 -254
-628 -254 -187 0 -348 39 -522 126 -92 46 -140 80 -277 194 l-116 97 -94 -79
c-132 -111 -201 -160 -294 -206 -171 -86 -332 -125 -520 -125 -156 -1 -267 23
-390 83 -238 115 -441 363 -491 600 -24 112 -15 297 20 415 48 159 148 340
275 497 25 31 295 290 599 574 304 284 569 536 589 561 65 79 118 93 333 90
140 -2 160 -5 203 -26z"/>
</g>
</svg>
